
<svg xmlns="http://www.w3.org/2000/svg" version="1.1" xmlns:xlink="http://www.w3.org/1999/xlink" preserveAspectRatio="none" x="0px" y="0px" width="141px" height="46px" viewBox="0 0 141 46">
<defs>
<g id="Layer1_0_FILL">
<path fill="#FFFFFF" stroke="none" d="
M 140 -0.2
L 0 -0.2 0 39.8
Q 0 44.8 5 44.8
L 135 44.8
Q 140 44.8 140 39.8
L 140 -0.2 Z"/>
</g>

<g id="Layer0_0_MEMBER_0_FILL">
<path fill="#0050A5" stroke="none" d="
M 76.75 8.45
L 71.65 8.45 69.65 17.5
Q 69.15 19.85 68.75 22 68.35 24.15 68.1 26.25
L 67.95 26.25
Q 67.65 24.15 67.15 22 66.75 19.85 66.25 17.5
L 64.2 8.45 59.05 8.45 57.3 33.45 61.4 33.45 61.85 24.75
Q 62 22.9 62.1 20.65 62.2 18.5 62.25 16.4
L 62.35 16.4
Q 62.55 17.8 62.8 19.2 63.1 20.6 63.35 21.95 63.65 23.25 63.9 24.25
L 65.95 33.05 69.4 33.05 71.55 24.1
Q 71.85 23.1 72.1 21.85 72.4 20.55 72.65 19.15 72.95 17.8 73.15 16.4
L 73.25 16.4
Q 73.2 18.45 73.3 20.65 73.4 22.9 73.5 24.7
L 73.95 33.45 78.3 33.45 76.75 8.45
M 83.95 15.5
Q 82.5 15.95 81.7 16.4
L 82.6 19.7
Q 83.4 19.2 84.35 18.9 85.2 18.65 86.3 18.65 87.6 18.65 88.25 19.3 88.9 20 88.9 21.1
L 88.9 21.5
Q 86.75 21.55 84.9 22.2 83 22.9 81.8 24.4 80.6 25.9 80.55 28.25 80.6 30.7 81.9 32.2 83.2 33.75 85.35 33.75 86.55 33.75 87.6 33.25 88.6 32.7 89.35 31.7
L 89.5 31.7 89.7 33.45 94.05 33.45
Q 93.95 32.55 93.85 31.45 93.8 30.4 93.8 29.3
L 93.8 22.6
Q 93.85 20.7 93.35 18.95 92.9 17.25 91.5 16.15 90.1 15.05 87.4 15 85.45 15.05 83.95 15.5
M 88.1 29.8
Q 87.55 30.2 86.9 30.2 86.3 30.2 85.75 29.65 85.2 29.05 85.15 27.75 85.15 26.5 85.8 25.8 86.45 25.15 87.3 24.9 88.2 24.65 89 24.65
L 89 27.75
Q 89 28 89 28.2 88.95 28.45 88.9 28.65 88.65 29.45 88.1 29.8
M 102.55 18.75
L 106.15 18.75 106.15 15.3 102.55 15.3 102.55 10.6 97.7 12.1 97.7 15.3 95.55 15.3 95.55 18.75 97.7 18.75 97.7 27.35
Q 97.7 29.45 98.15 30.65 98.5 31.85 99.2 32.55 99.9 33.15 100.8 33.4 101.7 33.7 102.75 33.7 103.7 33.7 104.45 33.6 105.2 33.5 105.75 33.35
L 105.7 29.55
Q 105.35 29.65 105.05 29.65 104.75 29.7 104.35 29.7 103.65 29.7 103.15 29.15 102.6 28.55 102.55 27.05
L 102.55 18.75
M 122.05 33.45
L 122.05 22.45
Q 122.05 18.95 120.95 17 119.85 15.05 117.35 15 116.7 15 116.1 15.2 115.45 15.4 114.95 15.7 114.5 16 114.05 16.35 113.7 16.75 113.35 17.2
L 113.3 17.2 113.3 7.8 108.4 7.8 108.4 33.45 113.3 33.45 113.3 22.2
Q 113.3 21.85 113.35 21.45 113.4 21.05 113.45 20.8 113.75 19.9 114.25 19.5 114.75 19.05 115.35 19.1 116.45 19.15 116.8 20.1 117.15 21.05 117.15 22.45
L 117.15 33.45 122.05 33.45 Z"/>
</g>

<g id="Layer0_0_MEMBER_1_FILL">
<path fill="#F05A23" stroke="none" d="
M 19.4 8.45
L 19.4 18.45 14.3 18.45 14.3 8.45 9.4 8.45 9.4 33.45 14.3 33.45 14.3 23 19.4 23 19.4 33.45 24.25 33.45 24.25 8.45 19.4 8.45
M 40.6 26.1
Q 40.65 25.7 40.7 25.15 40.75 24.5 40.75 23.6 40.7 19.45 39.1 17.2 37.5 15 34.55 14.95 32.5 15 30.85 16.15 29.25 17.3 28.25 19.5 27.3 21.65 27.3 24.7 27.3 29 29.25 31.35 31.2 33.65 35 33.7 36.35 33.7 37.65 33.45 38.95 33.25 39.95 32.85
L 39.3 29.35
Q 38.6 29.6 37.75 29.8 36.85 29.95 35.8 29.95 34.2 29.95 33.15 29.1 32.05 28.2 32 26.1
L 40.6 26.1
M 32.25 20.85
Q 32.5 19.85 33 19.2 33.5 18.55 34.25 18.55 35.35 18.6 35.85 19.75 36.3 20.9 36.3 22.7
L 32 22.7
Q 32 21.75 32.25 20.85
M 56 15.3
L 51.2 15.3 49.75 24.85
Q 49.65 25.6 49.5 26.4 49.4 27.15 49.3 27.8
L 49.2 27.8
Q 49.1 27.1 49 26.35 48.85 25.6 48.7 24.75
L 46.9 15.3 41.7 15.3 46.7 32.15
Q 46.75 32.3 46.75 32.45 46.8 32.6 46.8 32.8 46.8 33 46.75 33.2 46.7 33.4 46.6 33.6 46.3 34.2 45.95 34.7 45.55 35.3 45.05 35.75 44.5 36.25 43.9 36.65 43.25 37.05 42.6 37.25
L 44.1 41.5
Q 44.75 41.35 45.9 40.65 47.05 39.95 48.25 38.6 49.7 36.8 50.7 34.4 51.6 31.95 52.3 29.35
L 56 15.3 Z"/>
</g>

<g id="Layer0_0_MEMBER_2_MEMBER_0_FILL">
<path fill="#0050A5" stroke="none" d="
M 130.1 28.55
Q 129.35 27.8 128.1 27.75 126.95 27.8 126.15 28.55 125.35 29.4 125.35 30.8 125.35 32.1 126.15 32.9 126.95 33.75 128.1 33.75 129.4 33.75 130.15 32.9 130.85 32.1 130.9 30.8 130.85 29.4 130.1 28.55
M 130.8 8.45
L 125.5 8.45 126.05 25.3 130.2 25.3 130.8 8.45 Z"/>
</g>

<g id="Layer0_0_MEMBER_3_FILL">
<path fill="#000000" fill-opacity="0.4980392156862745" stroke="none" d="
M 133.55 9.8
L 133.55 11.75 133.85 11.75 133.85 10.9 134.05 10.9
Q 134.2 10.9 134.3 10.95 134.4 11.05 134.65 11.45
L 134.8 11.75 135.2 11.75 134.95 11.3
Q 134.75 11.05 134.65 10.95 134.6 10.9 134.45 10.85 134.75 10.85 134.9 10.7 135.05 10.5 135.05 10.3 135.05 10.15 134.95 10.05 134.85 9.85 134.7 9.85 134.6 9.8 134.2 9.8
L 133.55 9.8
M 133.85 10.65
L 133.85 10.05 134.2 10.05
Q 134.45 10.05 134.5 10.1 134.6 10.1 134.65 10.15 134.7 10.25 134.7 10.3 134.7 10.45 134.6 10.55 134.5 10.65 134.25 10.65
L 133.85 10.65 Z"/>
</g>

<path id="Layer1_0_1_STROKES" stroke="#CCCCCC" stroke-width="1" stroke-linejoin="miter" stroke-linecap="butt" stroke-miterlimit="3" fill="none" d="
M 0 -0.2
L 0 39.8
Q 0 44.8 5 44.8
L 135 44.8
Q 140 44.8 140 39.8
L 140 -0.2"/>

<path id="Layer0_0_MEMBER_3_MEMBER_0_1_STROKES" stroke="#000000" stroke-opacity="0.4980392156862745" stroke-width="1" stroke-linejoin="miter" stroke-linecap="butt" stroke-miterlimit="3" fill="none" d="
M 136.75 11.85
Q 136 11.85 135.45 11.3 134.95 10.8 134.95 10.05 134.95 9.3 135.45 8.75 136 8.25 136.75 8.25 137.5 8.25 138 8.75 138.55 9.3 138.55 10.05 138.55 10.8 138 11.3 137.5 11.85 136.75 11.85 Z"/>
</defs>

<g transform="matrix( 1, 0, 0, 1, 0.5,0.7) ">
<use xlink:href="#Layer1_0_FILL"/>

<use xlink:href="#Layer1_0_1_STROKES"/>
</g>

<g transform="matrix( 1, 0, 0, 1, 0,0) ">
<use xlink:href="#Layer0_0_MEMBER_0_FILL"/>
</g>

<g transform="matrix( 1, 0, 0, 1, 0,0) ">
<use xlink:href="#Layer0_0_MEMBER_1_FILL"/>
</g>

<g transform="matrix( 1, 0, 0, 1, 0,0) ">
<use xlink:href="#Layer0_0_MEMBER_2_MEMBER_0_FILL"/>
</g>

<g transform="matrix( 1, 0, 0, 1, 0,0) ">
<use xlink:href="#Layer0_0_MEMBER_3_FILL"/>
</g>

<g transform="matrix( 1, 0, 0, 1, -2.5,0.7) ">
<use xlink:href="#Layer0_0_MEMBER_3_MEMBER_0_1_STROKES"/>
</g>
</svg>
